<svg xmlns="http://www.w3.org/2000/svg" viewBox="0 0 280 280" fill="none" shape-rendering="auto"><metadata xmlns:rdf="http://www.w3.org/1999/02/22-rdf-syntax-ns#" xmlns:xsi="http://www.w3.org/2001/XMLSchema-instance" xmlns:dc="http://purl.org/dc/elements/1.1/" xmlns:dcterms="http://purl.org/dc/terms/"><rdf:RDF><rdf:Description><dc:title>Avataaars</dc:title><dc:creator>Pablo Stanley</dc:creator><dc:source xsi:type="dcterms:URI">https://avataaars.com/</dc:source><dcterms:license xsi:type="dcterms:URI">https://avataaars.com/</dcterms:license><dc:rights>Remix of „Avataaars” (https://avataaars.com/) by „Pablo Stanley”, licensed under „Free for personal and commercial use” (https://avataaars.com/)</dc:rights></rdf:Description></rdf:RDF></metadata><mask id="viewboxMask"><rect width="280" height="280" rx="0" ry="0" x="0" y="0" fill="#fff" /></mask><g mask="url(#viewboxMask)"><g transform="translate(8)"><path d="M132 36a56 56 0 0 0-56 56v6.17A12 12 0 0 0 66 110v14a12 12 0 0 0 10.3 11.88 56.04 56.04 0 0 0 31.7 44.73v18.4h-4a72 72 0 0 0-72 72v9h200v-9a72 72 0 0 0-72-72h-4v-18.39a56.04 56.04 0 0 0 31.7-44.73A12 12 0 0 0 198 124v-14a12 12 0 0 0-10-11.83V92a56 56 0 0 0-56-56Z" fill="#ffdbb4"/><path d="M108 180.61v8a55.79 55.79 0 0 0 24 5.39c8.59 0 16.73-1.93 24-5.39v-8a55.79 55.79 0 0 1-24 5.39 55.79 55.79 0 0 1-24-5.39Z" fill="#000" fill-opacity=".1"/><g transform="translate(0 170)"><path d="M132.5 54C151 54 166 44.37 166 32.5c0-1.1-.13-2.18-.38-3.23A72 72 0 0 1 232 101.05V110H32v-8.95A72 72 0 0 1 99.4 29.2a14.1 14.1 0 0 0-.4 3.3C99 44.37 114 54 132.5 54Z" fill="#b1e2ff"/><g transform="translate(77 58)"><g fill="#fff"><path d="M63.84 17c-.29.65-.56 1.3-.82 1.95L63 19l2-.16A18.7 18.7 0 0 0 63.84 17ZM53.22 17.3c.2-.06.42-.13.7-.3.15.42.26 3.29-1.35 2.98-.92-.18-.5-1.77-.25-2.1.34-.41.59-.49.9-.58Z"/><path fill-rule="evenodd" clip-rule="evenodd" d="M74.64 16.95C73.46 11.68 70.6 7.97 66.18 5c-3.35-2.25-6.5-2.23-10.46-1.75-3.25.4-6.35 1.3-9.2 2.94-5.04 2.89-7.92 6.74-8.6 12.54-.28 2.33-.33 5.1.5 7.32.48 1.3 1.34 2.34 2.25 3.36.15.17.5.47.86.79.6.52 1.26 1.1 1.28 1.29.12.86-2.2 3.4-2.89 4.15-.05.06-.1.1-.12.14-.23.25-.73.6-1.3.99-1.02.7-2.25 1.55-2.43 2.2-.83 2.93 5.83 1.89 7.45 1.63 1.55-.24 3.11-.54 4.62-.98.7-.2 1.4-.44 2.07-.72.56-.23 1.17-.7 1.78-1.16.7-.52 1.38-1.03 1.97-1.2a5.9 5.9 0 0 1 2.1.02c.6.07 1.2.14 1.7.09 1.5-.15 3.03-.45 4.5-.87a19 19 0 0 0 7.05-3.84c4.42-3.76 6.6-9.24 5.33-15Zm-5.13 6.99c-.62.16-1.36-1.24-1.08-1.72.77-1.34 2.16 1.42 1.08 1.72Zm-2.22-9.38c-.27 1.1.12 2.95.4 4.05.07.36.42.47.73.43.55-.08.45-.56.36-.97-.03-.16-.06-.3-.06-.4.04-.75.11-2.64-.17-3.32-.51-1.26-.97-1.02-1.27.21Zm-.65 8.33c-.58.34-.86-.29-1.05-.74-.06-.13-.1-.24-.16-.32a1.39 1.39 0 0 1-.29-.72c-.01-.18-.02-.22-.58-.39-1.77-.52-1.8.7-1.84 1.94-.02.72-.04 1.45-.4 1.84-1.78 1.91-.58-3.68-.37-4.68l.03-.1.12-.7c.34-1.96 1.02-5.86 2.67-3.11.49.8 2.7 6.49 1.87 6.98Zm-10.37-.95c.6.6 3.7.22 4.02-.34.68-1.18-1.85-.85-2.78-.73l-.29.03c.04-.75.13-1.5.21-2.27.12-1.05.24-2.1.23-3.15v-.17c.02-.62.06-1.94-.96-1.21-.34.25-.33 1.19-.33 1.82v.46c-.02.23-.08.6-.15 1.02-.24 1.51-.61 3.87.04 4.54Zm-.77-2.78c-1.43 5.73-6.98 2.64-4.5-1.71.46-.8.83-.98 1.41-1.26.22-.1.46-.22.75-.4.05-.03.06-.14.06-.28 0-.27.02-.65.43-.64 1.76.03 2.18 2.93 1.85 4.28Zm-7 .83c-.04.87-.14 3.3.97 3 .76-.21.54-9.98-.33-9.98-.92 0-.75 1.78-.6 3.33.1 1 .19 1.91-.04 2.17-.1.12-.51.1-.84.06a2.1 2.1 0 0 0-.4 0c-1.15.2-1.9.08-2.25-.61-.1-.2-.1-.7-.1-1.29-.01-1.33-.02-2.96-1.15-1.5l.03 2.2c.34.72.21 1.16-.38 1.32-.02.3.16.58.28.77.07.1.12.19.12.24.02.14 0 .38-.01.66-.08 1.26-.2 3.54.92 3.4.71-.08.49-2.28.37-3.42l-.05-.6.91.03c.86.04 1.73.08 2.56-.03V20Z"/></g></g></g><g transform="translate(78 134)"><rect x="42" y="18" width="24" height="6" rx="3" fill="#000" fill-opacity=".7"/></g><g transform="translate(104 122)"><path fill-rule="evenodd" clip-rule="evenodd" d="M16 8c0 4.42 5.37 8 12 8s12-3.58 12-8" fill="#000" fill-opacity=".16"/></g><g transform="translate(76 90)"><path d="M44 20.73c0 4.26-6.27 7.72-14 7.72S16 25 16 20.73C16 16.46 22.27 13 30 13s14 3.46 14 7.73ZM96 20.73c0 4.26-6.27 7.72-14 7.72S68 25 68 20.73C68 16.46 74.27 13 82 13s14 3.46 14 7.73Z" fill="#fff"/><path d="M32.82 28.3a25.15 25.15 0 0 1-5.64 0 6 6 0 1 1 5.64 0ZM84.82 28.3a25.15 25.15 0 0 1-5.64 0 6 6 0 1 1 5.64 0Z" fill="#000" fill-opacity=".7"/></g><g transform="translate(76 82)"><path d="M36.37 6.88c-1.97 2.9-5.55 4.64-8.74 5.68-3.94 1.29-18.55 3.38-15.11 11.35.05.12.22.12.27 0 1.15-2.65 17.47-5.12 18.97-5.7 4.45-1.71 8.4-5.5 9.17-10.55.35-2.31-.64-6.05-1.55-7.55-.11-.18-.37-.13-.43.07-.36 1.33-1.41 4.97-2.58 6.7ZM75.63 6.88c1.97 2.9 5.55 4.64 8.74 5.68 3.94 1.29 18.55 3.38 15.11 11.35a.15.15 0 0 1-.27 0c-1.15-2.65-17.47-5.12-18.97-5.7-4.45-1.71-8.4-5.5-9.17-10.55-.35-2.31.64-6.05 1.55-7.55.11-.18.37-.13.43.07.36 1.33 1.41 4.97 2.58 6.7Z" fill-rule="evenodd" clip-rule="evenodd" fill="#000" fill-opacity=".6"/></g><g transform="translate(-1)"><g fill="#e8e1e1"><path d="M187.7 56.12c.9 3.25 2.17 11.95-.06 14.84-.75.96-5.84-1.74-7.97-2.92l-3.53-1.96c-14.92-8.32-19.74-11-45.9-10.62-28.11.4-47.37 13.58-48.46 14.93-.75.93-1.71 3.44-2.5 10.41-.25 2.2-.32 4.97-.4 7.71-.14 5.94-.3 11.77-2.25 11.76-2.44-.01-2.97-23.78-1.92-33.21.04-.36.1-.78.18-1.23.23-1.4.5-3.13.16-4.11-.16-.44-.54-.7-.94-.99-.62-.43-1.26-.88-1.08-2.03.21-1.31 1.1-1.43 1.97-1.56.57-.08 1.13-.16 1.5-.56 1.13-1.23.46-1.87-.31-2.6-.46-.43-.95-.9-1.12-1.53-.63-2.36 1.03-3.1 2.69-3.83l.38-.17c.69-.3 1.1-.42 1.42-.5.6-.15.85-.21 1.89-1.35-2.14-1.56-2.9-3.69.01-4.83.56-.22 1.52-.2 2.5-.2 1.2.02 2.4.03 2.94-.37.15-.11.24-.53.33-.9.06-.27.11-.5.18-.6 1.35-1.93 1.23-3.4 1.08-5.4l-.07-.92c-.13-2.04-.11-3.9 2.33-4.11 1-.08 1.9.4 2.77.86.54.29 1.08.58 1.64.73.87.23 1.1.43 1.32.43.19 0 .37-.15.96-.55 1.18-.82 1.3-2.05 1.43-3.3.11-1.08.22-2.18 1.04-3 1.58-1.6 2.8-.64 4 .3.64.5 1.28 1 1.96 1.1 2.55.36 3.06-1.06 3.62-2.59.36-1 .74-2.06 1.74-2.68 1.83-1.15 2.64-.05 3.43 1.01.5.68.98 1.33 1.7 1.39 1.01.08 2.52-1.1 3.85-2.14a11.6 11.6 0 0 1 2.1-1.44c2.27-.93 3.91.07 5.58 1.08 1.4.85 2.83 1.72 4.65 1.43l.83-.13c2.24-.37 3.11-.51 5.45.96a4.2 4.2 0 0 0 3.74.69c.6-.12 1.3-.25 2.26-.26 1.1 0 1.98.5 2.83.99.7.4 1.36.79 2.13.87.42.04.84-.16 1.26-.36.42-.2.84-.4 1.3-.38 1.83.11 2.69 1.5 3.55 2.88.67 1.08 1.34 2.15 2.46 2.66 1.62.72 3.44.24 5.17-.21.79-.2 1.55-.4 2.28-.5 3.96-.46 3.27 1.97 2.55 4.56a11.1 11.1 0 0 0-.6 3.26c1.15.27 2.3-.15 3.46-.57 1.1-.4 2.18-.8 3.27-.6 3.4.58 2.25 4.02 1.44 6.45l-.08.21c.64 0 1.54-.2 2.56-.42 2.86-.6 6.61-1.41 7.78 1.13.47 1.05 0 2.31-.44 3.54a7.17 7.17 0 0 0-.61 2.41c.02 1.53.7 2.9 1.4 4.27.45.91.9 1.82 1.17 2.78Z"/><path d="m186.36 73.6.47.33c1.76.99 3.15 10.9 3.22 14.69.04 2.34.08 11.25-2.4 10.48-.75-.23-1.9-4.95-2.06-7.72-.16-2.76-1.74-12.16-4.14-16.49-.13-.23-.32-.51-.53-.8-.65-.96-1.44-2.12-.92-2.76.72-.88 1.43-.57 2.26-.2l.44.18c.87.35 2.77 1.68 3.66 2.3Z"/></g></g><g transform="translate(49 72)"></g><g transform="translate(62 42)"></g></g></g></svg>