<svg xmlns="http://www.w3.org/2000/svg" viewBox="0 0 980 980" fill="none" shape-rendering="auto"><metadata xmlns:rdf="http://www.w3.org/1999/02/22-rdf-syntax-ns#" xmlns:xsi="http://www.w3.org/2001/XMLSchema-instance" xmlns:dc="http://purl.org/dc/elements/1.1/" xmlns:dcterms="http://purl.org/dc/terms/"><rdf:RDF><rdf:Description><dc:title>Lorelei</dc:title><dc:creator>Lisa Wischofsky</dc:creator><dc:source xsi:type="dcterms:URI">https://www.figma.com/community/file/1198749693280469639</dc:source><dcterms:license xsi:type="dcterms:URI">https://creativecommons.org/publicdomain/zero/1.0/</dcterms:license><dc:rights>Remix of „Lorelei” (https://www.figma.com/community/file/1198749693280469639) by „Lisa Wischofsky”, licensed under „CC0 1.0” (https://creativecommons.org/publicdomain/zero/1.0/)</dc:rights></rdf:Description></rdf:RDF></metadata><mask id="viewboxMask"><rect width="980" height="980" rx="0" ry="0" x="0" y="0" fill="#fff" /></mask><g mask="url(#viewboxMask)"><g transform="translate(10 -60)"><path d="M602 226c34 16 66 38 90 67l14 20c1 3 3 4 5 6 17 16 32 33 44 54 12 18 22 39 27 60 5 17 3 36 1 53l-7 25c-2 4-5 10-9 13-2 1-5 2-5-1l2-9a148 148 0 0 0 1-76c-4-17-12-32-20-47l4 12c8 31 3 66-10 96v2l20 33a286 286 0 0 1 40 126c2 20 2 40 0 60a205 205 0 0 1-23 71c-1 2-4 6-7 6l-2-3 3-12v-14c-1-16-5-32-11-47-2 16-6 32-10 48-6 22-14 44-24 66-10 19-22 38-37 53-18 19-41 33-65 39-15 4-31 5-46 4-10 0-19-2-27-7l-57-14-60-9c-23-2-45 0-67-1-8 0-16 0-23-2h-5c-3 0-5-2-8-4-19-10-36-24-51-40-21-22-37-47-51-73a459 459 0 0 1-46-168l-4 33c-2 36 3 72 14 107a632 632 0 0 0 46 107l5 10h-1c-3-1-6-5-9-7a290 290 0 0 1-58-103 355 355 0 0 1-16-157c3-29 9-58 19-85l4-11c1-18 4-35 7-53 9-43 23-86 47-123 9-14 19-28 31-40l15-13a291 291 0 0 1 160-74c54-7 110 1 160 22Z" fill="#000000"/><path d="M495 234c28 1 56 6 84 15a201 201 0 0 1 100 65c19 25 31 55 35 86a361 361 0 0 1 2 101l-5 34-4 20c-1 2-1 2-3 2-2-4-2-8-2-12-1-15 1-29 2-44 1-24 3-48 1-72l-6-45c-7-28-20-54-40-75-18-18-40-33-63-43-22-9-44-15-67-19-18-3-36-4-54-4a277 277 0 0 0-128 29c-13 9-25 20-35 32a276 276 0 0 0-55 139c-1 24 0 47 8 70l7 15 12 1 1 3c-3 2-7 2-11 3-10 2-20 6-29 12-7 5-14 11-18 19-5 10-3 22-1 33 5 19 17 37 33 49 11 9 25 14 39 16 10 2 20 0 30-1 5 4 8 12 11 17l18 27a136 136 0 0 0 66 50c22 9 45 14 68 19l41 8 17 5v4h-12a535 535 0 0 1-67-8 255 255 0 0 1-84-33c-11-7-21-16-29-27a214 214 0 0 1-16 123c-15 27-40 48-70 57-3 1-7 2-10 1-2 0-2-1-2-3 1-3 4-5 6-6 12-8 26-14 38-23 13-11 24-23 31-38 6-15 10-32 12-49 2-13 3-26 2-40l-4-38-18-36-19 4a88 88 0 0 1-75-38 93 93 0 0 1-20-58c0-9 3-18 8-25s12-13 19-17c5-4 12-6 18-8l-9-24c-5-22-5-45-2-67a292 292 0 0 1 63-149c9-10 18-19 29-26 7-4 14-5 20-9 43-19 90-25 137-22Z" fill="#000"/><path d="M475 243a276 276 0 0 1 121 23c23 10 45 25 63 43 20 21 33 47 40 75l6 45c2 24 0 48-1 72-1 15-3 29-2 44 0 4 0 8 2 12l-1 20c-2 5-2 10-2 16-2 24-2 49-6 74-1 12-3 25-8 36-3 9-8 17-15 24-12 13-27 24-43 33-19 11-39 16-58 24-5 2-10 4-13 8 8 1 15 0 23-2-5 12-6 24-6 36 0 5-1 11 1 16 3 5 8 9 13 12l35 13c22 8 43 18 65 27 2 4 5 7 6 12 6 11 7 23 3 35-5 13-15 24-27 31-16 11-36 19-55 24a494 494 0 0 1-235-7c-20-7-40-14-58-24-14-8-29-18-40-31-6-8-11-19-12-29a122 122 0 0 0 86-107c4-24 4-49 0-73 8 11 18 20 29 27l27 14a331 331 0 0 0 124 27h12v-4l-17-5-41-8c-23-5-46-10-68-19-13-6-27-13-39-21-10-9-19-18-27-29l-18-27c-3-5-6-13-11-17-10 1-20 3-30 1-14-2-28-7-39-16a94 94 0 0 1-33-49c-2-11-4-23 1-33 4-8 11-14 18-19 9-6 19-10 29-12 4-1 8-1 11-3l-1-3-12-1-7-15c-8-23-9-46-7-70a276 276 0 0 1 54-139c10-12 22-23 35-32a277 277 0 0 1 128-30Z" fill="#ffffff"/><path d="M260 571c4 0 7 0 11 2 5 1 11 4 14 8 2 3 2 7 0 10-5 6-12 10-16 16 6 4 14 6 21 9 4 1 8 3 11 6l1 3-8-2-24-7c-4-1-8-3-9-7-1-3 1-7 3-10l15-13c-4-7-15-8-19-15ZM703 577l2 3 2 16a483 483 0 0 1-2 89c-2 11-5 23-10 33a198 198 0 0 1-106 71c-1 14-3 31-2 47l5 5c8 6 18 9 27 12a451 451 0 0 1 68 28c7 4 13 9 18 15-5 1-10-1-16-2-22-9-43-19-65-27l-35-13c-5-3-10-7-13-12-2-5-1-11-1-16 0-12 1-24 6-36-8 2-15 3-23 2 3-4 8-6 13-8 19-8 39-13 58-24 16-9 31-20 43-33 7-7 12-15 15-24 5-11 7-24 8-36 4-25 4-50 6-74 0-6 0-11 2-16Z" fill="#000"/><path d="m661 483 13 7 10 10c5 3 11 2 17 2-3 6-10 6-16 6-11 1-20-4-30-4l6 5c4 4 5 11 5 16-1 4-2 8-5 11-6 9-21 10-27 1-5-6-5-13-1-20-6 6-11 11-15 18-2 1-5 5-7 2-2-4 0-9 2-14 3-7 7-15 13-21 7-7 14-13 24-15l-4-2c4-3 10-3 15-2ZM453 487l-6 5c-6 3-11 7-15 11 8-3 15-6 23-7 13-3 26-1 37 5 9 3 16 8 22 15 5 6 9 13 9 21 0 2-1 4-4 4l-7-7-9-6c0 5-2 11-5 15-4 8-13 12-22 10-9-1-16-9-17-18-2-8 1-16 6-22-13 0-22 5-32 11-10 5-20 5-31 4-5 0-9-1-13-3l-2-2c7-1 15-2 21-5l5-4c6-16 24-26 40-27Z" fill="#000000"/><path d="M658 387c7 1 14 2 20 5l6 5c-8 5-18 8-28 8h-17l-16 2c-6 1-10 7-13 12-6 11-8 25-10 37-4-3-3-8-3-12 0-14 2-29 10-41 4-6 10-13 17-14 11-3 23-3 34-2ZM533 426c6-1 12 0 17 3 2 0 2 1 2 3l-8 8c-3 3-8 4-12 6l-18 3-47 3c-14 1-28 1-41 4-14 4-26 10-37 18l-9 8c-1-2-1-4 1-6 3-6 9-12 14-17 16-12 35-19 55-22l69-7c5 0 9-3 14-4Z" fill="#000000"/><path d="M597 505h1l3 15 3 26 8 13 6 12c2 5 2 10 5 14 3 5 5 10 5 16 0 9-6 17-14 20l-19 8c-5 3-9 5-15 5-5 0-11 0-13-5-2-2 0-4 2-5l12-3 16-5 13-5c6-2 9-8 7-14l-5-8-7-17-7-19c-4-8-6-17-5-26 0-7 1-15 4-22Z" fill="#000000"/><path d="M465 666c10-1 20 1 30 2 16 1 31 5 47 6h25l23-2c11-2 22-4 33-3 6 0 12 2 16 6 4 3 7 9 6 14-1 7-6 13-11 18l-24 13c-10 3-19 6-29 4-4-1-6-3-8-6 8-4 16-3 24-5 12-3 24-8 33-16 3-2 6-6 7-10s-2-6-5-8c-6-2-13-2-19-1-16 2-32 6-48 7l-28-1c-14-1-28-5-42-7l-27-2c-2 0-4-1-6 1-1 3 0 8 2 11 5 6 12 9 19 13l19 8c3 1 7 2 8 5 2 7 1 14 4 21 1 2 3 4 6 5 6-5 4-11 8-17 2-4 4-8 9-8 9-1 18 1 27 2 2 1 4 1 5 3 0 3-3 3-5 3-8 1-18-2-26-2-3-1-3 2-5 3-3 6-2 12-6 16-1 3-5 5-8 5-4-1-8-4-10-7-4-6-4-14-5-21-7-1-14-2-20-5l-17-8c-6-4-10-10-12-16v-14c2-4 6-6 10-7Z" fill="#000000"/><path fill-rule="evenodd" clip-rule="evenodd" d="M686 525h37a1149 1149 0 0 0 13 1c7 0 13 1 17 6 3 3 3 7 0 9-4 4-10 4-16 3 2 11 1 21-5 31-4 6-10 9-17 12-14 7-30 11-45 12-9 1-17 0-24-2-7-1-15-3-21-7a35 35 0 0 1-14-24l-2-4-11-2h-1a81 81 0 0 0-23 1h-4l-15 2-2 3-2 4-1 4v3c-2 10-8 18-16 23-9 6-21 9-32 11a183 183 0 0 1-83-10c-6-4-12-8-15-15-4-8-4-17-2-25h-4l-9-1c-3-1-4-3-3-6 2-4 8-6 12-8 6-2 12-4 19-4l55-7c24-3 48-3 72 1l9 4 7 3h3l9 2 23-1 4-1c3 1 5-2 8-4l5-4c7-3 15-4 22-5l6-1 32-3 14-1Zm38 18v8c0 4 0 10-2 14-1 4-4 6-7 8-13 6-27 10-42 12-11 2-22 0-33-3-9-2-16-9-18-18-2-4-2-9-2-13v-3a1133 1133 0 0 0 37-2l17-2a258 258 0 0 1 40-1h10Zm-197 8h-10c-13-1-27 0-40 1l-19 2a1435 1435 0 0 1-41 5l1 8 1 11c1 6 6 8 10 11a86 86 0 0 0 29 8c21 3 41 4 61-3 8-3 15-7 19-14 4-9 4-20 3-29h-14Z" fill="#000000"/><path d="M559 212c40 10 78 29 108 56 14 11 26 25 36 40l5 8c10 9 19 19 27 29a236 236 0 0 1 49 97c1 8 2 15 1 23-1 15-3 30-9 44-2 5-5 12-10 15h-4l2-9a154 154 0 0 0 1-76c-4-17-11-33-20-48l4 12c5 21 5 45-1 67-4 20-13 38-24 56-5 5-9 12-15 16-3 2-6 1-9 2-2-2-1-4-1-6l-1-20c-2-35-14-69-31-100a318 318 0 0 0-77-88l-9-7a244 244 0 0 1 17 68c1 17 2 34 1 51-2 30-6 59-17 87-6 15-13 28-21 42-11 18-26 35-43 47-3 1-7 4-10 3l1-3 17-19c22-26 34-60 42-93 6-25 7-50 4-75l-1 6a376 376 0 0 1-44 99 227 227 0 0 1-77 71l-14 5c-2 1-6 1-7-2 1-6 5-12 7-18a267 267 0 0 0 19-45c-13 16-28 31-46 41-16 9-35 14-53 14-5 0-11-1-14-5-3-2-1-6 0-10l10-32c5-16 9-32 12-49l-16 18-19 17-1 23a756 756 0 0 0 32 212c11 30 26 57 41 85l6 12c1 2-1 4-3 3a335 335 0 0 1-61-55 433 433 0 0 1-97-326l-2-4a181 181 0 0 1-13-130c10-32 27-60 50-83 27-27 61-47 97-60 58-20 122-22 181-6Z" fill="#000000"/></g><g transform="translate(10 -60)"></g></g></svg>