<svg xmlns="http://www.w3.org/2000/svg" viewBox="0 0 980 980" fill="none" shape-rendering="auto"><metadata xmlns:rdf="http://www.w3.org/1999/02/22-rdf-syntax-ns#" xmlns:xsi="http://www.w3.org/2001/XMLSchema-instance" xmlns:dc="http://purl.org/dc/elements/1.1/" xmlns:dcterms="http://purl.org/dc/terms/"><rdf:RDF><rdf:Description><dc:title>Lorelei</dc:title><dc:creator>Lisa Wischofsky</dc:creator><dc:source xsi:type="dcterms:URI">https://www.figma.com/community/file/1198749693280469639</dc:source><dcterms:license xsi:type="dcterms:URI">https://creativecommons.org/publicdomain/zero/1.0/</dcterms:license><dc:rights>Remix of „Lorelei” (https://www.figma.com/community/file/1198749693280469639) by „Lisa Wischofsky”, licensed under „CC0 1.0” (https://creativecommons.org/publicdomain/zero/1.0/)</dc:rights></rdf:Description></rdf:RDF></metadata><mask id="viewboxMask"><rect width="980" height="980" rx="0" ry="0" x="0" y="0" fill="#fff" /></mask><g mask="url(#viewboxMask)"><g transform="translate(10 -60)"><path d="M366 180c12 1 23 4 33 10 13 6 25 17 31 30 27 0 54-2 81 0a287 287 0 0 1 136 46c8 6 16 12 22 19 5 5 11 10 15 16 6 8 11 16 15 26 8 17 12 36 9 55-2 11-6 22-13 30-3 4-9 5-12 1-7-8-13-19-19-28-14-26-27-51-42-76l-16-1c-3 0-5-2-8-5l-11-8c-1 4-2 8-5 11-1 2-4 3-6 3-4-1-7-3-11-3a344 344 0 0 0-103-4 550 550 0 0 0-63 7l-18-6c1 8 4 17 3 26-1 4 0 7-2 10l-13 23-11 24c-6 16-11 32-14 48-1 2-2 5-4 6l-12 2c5 8 5 18 5 28-1 13-2 27-9 38 7 10 10 21 10 33 2 19 0 39-8 56l-7 10c2 23 6 47 13 70 7 24 17 48 27 71l17 36c1 3 3 7 1 10-2 6-6 10-11 14-7 5-15 8-24 10-13 3-27 2-38-5-8-4-15-10-20-18a180 180 0 0 0 18 49c-10 1-20-1-29-6a76 76 0 0 1-33-38c-8-19-12-39-15-59-12 23-32 43-55 55-7 3-14 5-21 1l2-7c7-10 15-21 21-32 10-17 18-36 20-55 2-13 2-27 1-40l-5-45-8-77-4-50a685 685 0 0 1 6-124 264 264 0 0 1 85-156c16-13 35-22 54-28 15-4 30-5 45-3Z" fill="#000000"/><path d="M486 236c57-2 115 18 159 56a209 209 0 0 1 73 190c-1 4-1 8-4 12l-1-3v-33a215 215 0 0 0-172-206 235 235 0 0 0-270 153c-12 37-14 78-6 116 6-2 12-2 17-2 2 1 5 1 6 3s0 3-1 4l-12 4c-14 3-27 8-37 18a63 63 0 0 0-22 45c0 12 3 24 8 35 8 13 19 24 33 31 18 10 41 13 62 7 2-1 4-2 6-1s3 4 4 6l15 30a215 215 0 0 0 72 63c28 15 59 21 90 26 3 1 8 1 10 4 1 2 0 3-2 4l-11 1a231 231 0 0 1-147-62c5 18 8 36 8 54 0 12-2 23-6 34-5 10-11 18-19 26a196 196 0 0 1-60 43c-1-1 1-2 2-3l17-14c13-12 25-23 35-38a93 93 0 0 0 17-65l-4-39-2-10-12-17c-5-10-11-20-13-31a93 93 0 0 1-96-31 81 81 0 0 1-19-51c0-12 3-23 8-34 9-16 23-29 40-36-8-31-8-62-3-93 8-40 26-77 51-108 45-54 115-87 186-88Z" fill="#000"/><path d="M541 252a214 214 0 0 1 172 206v33c-1 5-2 10-1 15-2 2-3 3-3 5-3 18-1 37 1 55 4 29 6 59 2 88-3 28-13 56-30 79-16 21-38 34-62 43-15 6-30 9-45 13-11 2-22 4-32 8 1 2 4 1 6 2 12 1 24-1 36-2-5 8-8 17-9 26-2 10 2 19 9 26 6 7 15 11 24 14 5 2 11 3 17 3 7 9 13 18 14 30 2 12-1 24-8 34-9 14-22 23-37 30-18 9-38 15-57 18a352 352 0 0 1-192-23c-18-10-38-23-48-42-4-7-8-16-6-24 18-10 33-23 47-38 8-8 14-16 19-26 4-11 6-22 6-34 0-18-3-36-8-54a235 235 0 0 0 147 62l11-1c2-1 3-2 2-4-2-3-7-3-10-4-31-5-62-11-90-26-18-10-36-22-50-37-8-8-16-17-22-26l-15-30c-1-2-2-5-4-6s-4 0-6 1a82 82 0 0 1-95-38c-5-11-8-23-8-35 1-17 9-34 22-45 10-10 23-15 37-18l12-4c1-1 2-2 1-4s-4-2-6-3c-5 0-11 0-17 2-8-38-6-79 6-116a236 236 0 0 1 270-153Z" fill="#ffffff"/><path d="m712 506 3 3 1 13 3 45c3 20 5 40 5 60 0 16-1 32-5 47-6 28-20 56-40 76a174 174 0 0 1-88 46c-1 9-4 16-4 25-1 6 2 10 5 15 8 8 18 14 28 19l18 9c-3 3-8 1-12 2-6 0-12-1-17-3-9-3-18-7-24-14-7-7-11-16-9-26 1-9 4-18 9-26-12 1-24 3-36 2-2-1-5 0-6-2 10-4 21-6 32-8 15-4 30-7 45-13 24-9 46-22 62-43 17-23 27-51 30-79 4-29 2-59-2-88-2-18-4-37-1-55 0-2 1-3 3-5ZM262 566c6 0 12 1 15 6 2 3 2 7 1 10-3 8-9 14-11 22-1 4 0 7 3 9 7 5 16 7 24 10l-2 2h-11c-6-1-12-2-17-5-5-4-9-11-7-18 2-9 9-15 12-23-7-4-14-2-20-8 3-4 8-6 13-5Z" fill="#000"/><path d="M669 473c8-1 16 1 22 6 3 3 6 7 6 11 1 5-4 10-9 10-4-1-6-3-8-6l-10-7c9 16 4 38-10 49-7 6-18 8-25 1-6-5-8-12-8-20-2 5-5 9-6 14-1 2-1 4-3 4-2-5-1-11 1-17 6-16 17-30 32-38 5-4 11-6 18-7ZM457 484c27 1 53 18 64 42 2 2 4 6 1 9-3 0-5-4-7-6-4-8-10-14-17-19 2 11 2 21-4 31-5 8-16 13-25 12-7-2-14-5-19-11-6-6-8-16-8-24 0-7 3-13 6-18-14 3-28 9-39 18-3 1-5 3-8 3-4-1-6-4-6-8 0-3 2-6 4-8 8-6 16-12 26-16s21-6 32-5Z" fill="#000000"/><path d="M524 402c7 3 12 9 15 16 4 6 6 12 4 19-1 2-2 5-4 3-3-2-5-6-6-9l-14 2-26 3-39 4c-12 1-24 0-36-1-3 0-7-1-9-3-3-2-2-7 1-8 9-3 20-2 30-4 7-1 14-4 20-6 9-3 17-7 26-9l20-5c5-1 12-4 18-2ZM631 404c11 0 19 6 30 8 6 2 14 1 20 5 2 1 3 4 2 7-2 2-5 2-8 2l-14 1-25 6-23 2-5 18-3 3-2-5c-1-10 0-21 5-30 2-4 4-9 8-12 4-4 10-6 15-5Z" fill="#000000"/><path d="M594 572a37 37 0 0 1 19 29c0 9-5 18-13 22l-17 7c-4 1-6 2-9 0-2-3-1-4 1-6 6-5 15-7 21-12 3-2 5-5 5-9 0-10-5-17-7-26v-5Z" fill="#000000"/><path d="M599 665c5 0 10 3 13 7 3 6 4 13 5 20 1 11-1 23-6 33-5 9-13 13-22 15-11 3-23 3-34 3-4 0-9-1-13-3 7-3 13-3 20-4l21-3c6-1 14-4 18-9s6-12 7-19l-4 6c-4 3-9 3-14 4l-26 4c-7 1-15 3-23 0l-11 23c-3 1-3-2-3-4 0-7 3-14 6-20 7-17 21-32 36-42 9-6 19-11 30-11Z" fill="#000000"/><path d="M690 460h30c9 1 17 1 26 4 3 1 5 4 4 8-4 5-10 6-16 7v29c-2 14-3 29-8 43-4 11-15 19-25 23-8 3-17 5-25 6-11 1-22-1-33-2-6-1-12-1-17-4-6-4-12-10-15-17-2-6-5-12-6-19-1-10-2-21 0-31-12-2-24-4-36-1l-4 5-1 11c-1 12-2 25-6 36-3 9-9 16-16 22l-15 8c-24 7-48 12-73 11-16-1-33-4-47-12-13-7-25-18-32-31l-4-13-1-23v-21c-7-1-13 0-19-4-3-2-4-7-1-10 3-4 9-5 14-7 15-6 29-8 45-11l19-2c18-2 36-3 54-2 19 0 37 1 56 4 8 1 15 5 22 9l10 11 24 3 12 1 2-9 7-8c9-5 19-7 28-10l47-4Z" fill="#000000"/><path d="M707 480c6 2 13 8 13 15 1 4-3 8-7 8-6-1-9-7-12-11-2-2-4-2-4-5 0-5 6-8 10-7ZM524 487c8 1 15 5 20 11 3 4 4 10 2 14s-7 6-12 4c-3-2-4-5-6-8-2-2-4-3-7-3l-12-5c-2-2-2-5 0-7 3-5 9-7 15-6Z" fill="#fff"/><path d="M508 220a271 271 0 0 1 97 24c14 7 29 14 42 23 8 5 16 11 22 18l22 25c-9 4-18 3-27 2-17-2-34-4-51-3l-8-1-7-5-12-8c0 4-1 7-3 11-2 2-4 3-7 3-4-1-7-3-11-3a470 470 0 0 0-155 3h-11l-18-6c1 9 4 18 3 26-1 4-1 8-3 11-7 14-15 27-21 42-7 17-13 35-17 53 0 2-1 4-3 5l-12 2c5 9 6 20 5 30-1 12-3 26-9 36 7 9 10 21 10 33 1 19 0 37-7 55-2 4-5 9-10 11-1 1-4 1-4-1-2-4-2-9-3-13-2-15-9-29-20-40-8-7-17-14-26-19-6-2-11-4-16-8l-6-8c-12-32-16-67-12-101a285 285 0 0 1 37-113c10-16 22-30 35-43 10-9 20-17 31-23l14-5 32-11 19-2h43c23 0 44-2 67 0Z" fill="#000000"/></g><g transform="translate(10 -60)"></g></g></svg>